<svg height="2782" width="720" xmlns="http://www.w3.org/2000/svg">
<rect height="2782" fill="#555" width="720"></rect>
<text fill="#7f7" font-family="Courier New" font-size="12" xml:space="preserve">
<tspan x="10" y="26">28 megabytes installed</tspan>
<tspan x="10" y="42"></tspan>
<tspan x="10" y="58">node_modules</tspan>
<tspan x="10" y="74">└─┬ ember-cli-eslint@3.0.3 </tspan>
<tspan x="10" y="90">  ├─┬ broccoli-lint-eslint@3.2.1 </tspan>
<tspan x="10" y="106">  │ ├─┬ broccoli-persistent-filter@1.2.13 </tspan>
<tspan x="10" y="122">  │ │ ├─┬ async-disk-cache@1.3.1 </tspan>
<tspan x="10" y="138">  │ │ │ ├─┬ istextorbinary@2.1.0 </tspan>
<tspan x="10" y="154">  │ │ │ │ ├── binaryextensions@2.0.0 </tspan>
<tspan x="10" y="170">  │ │ │ │ ├── editions@1.3.3 </tspan>
<tspan x="10" y="186">  │ │ │ │ └── textextensions@2.0.1 </tspan>
<tspan x="10" y="202">  │ │ │ └── rimraf@2.6.1 </tspan>
<tspan x="10" y="218">  │ │ ├── blank-object@1.0.2 </tspan>
<tspan x="10" y="234">  │ │ ├─┬ broccoli-plugin@1.3.0 </tspan>
<tspan x="10" y="250">  │ │ │ └─┬ quick-temp@0.1.8 </tspan>
<tspan x="10" y="266">  │ │ │   ├── mktemp@0.4.0 </tspan>
<tspan x="10" y="282">  │ │ │   └── underscore.string@3.3.4 </tspan>
<tspan x="10" y="298">  │ │ ├─┬ fs-tree-diff@0.5.6 </tspan>
<tspan x="10" y="314">  │ │ │ ├── object-assign@4.1.1 </tspan>
<tspan x="10" y="330">  │ │ │ └── path-posix@1.0.0 </tspan>
<tspan x="10" y="346">  │ │ ├─┬ hash-for-dep@1.1.2 </tspan>
<tspan x="10" y="362">  │ │ │ ├─┬ broccoli-kitchen-sink-helpers@0.3.1 </tspan>
<tspan x="10" y="378">  │ │ │ │ └── glob@5.0.15 </tspan>
<tspan x="10" y="394">  │ │ │ └─┬ resolve@1.3.3 </tspan>
<tspan x="10" y="410">  │ │ │   └── path-parse@1.0.5 </tspan>
<tspan x="10" y="426">  │ │ ├─┬ heimdalljs@0.2.4 </tspan>
<tspan x="10" y="442">  │ │ │ └── rsvp@3.2.1 </tspan>
<tspan x="10" y="458">  │ │ ├── heimdalljs-logger@0.1.9 </tspan>
<tspan x="10" y="474">  │ │ ├── md5-hex@1.3.0 </tspan>
<tspan x="10" y="490">  │ │ ├─┬ mkdirp@0.5.1 </tspan>
<tspan x="10" y="506">  │ │ │ └── minimist@0.0.8 </tspan>
<tspan x="10" y="522">  │ │ ├── promise-map-series@0.2.3 </tspan>
<tspan x="10" y="538">  │ │ └── symlink-or-copy@1.1.8 </tspan>
<tspan x="10" y="554">  │ ├── escape-string-regexp@1.0.5 </tspan>
<tspan x="10" y="570">  │ ├─┬ eslint@3.19.0 </tspan>
<tspan x="10" y="586">  │ │ ├─┬ babel-code-frame@6.22.0 </tspan>
<tspan x="10" y="602">  │ │ │ └── js-tokens@3.0.1 </tspan>
<tspan x="10" y="618">  │ │ ├─┬ chalk@1.1.3 </tspan>
<tspan x="10" y="634">  │ │ │ ├── ansi-styles@2.2.1 </tspan>
<tspan x="10" y="650">  │ │ │ ├── has-ansi@2.0.0 </tspan>
<tspan x="10" y="666">  │ │ │ ├── strip-ansi@3.0.1 </tspan>
<tspan x="10" y="682">  │ │ │ └── supports-color@2.0.0 </tspan>
<tspan x="10" y="698">  │ │ ├─┬ concat-stream@1.6.0 </tspan>
<tspan x="10" y="714">  │ │ │ ├── inherits@2.0.3 </tspan>
<tspan x="10" y="730">  │ │ │ ├─┬ readable-stream@2.2.9 </tspan>
<tspan x="10" y="746">  │ │ │ │ ├── buffer-shims@1.0.0 </tspan>
<tspan x="10" y="762">  │ │ │ │ ├── core-util-is@1.0.2 </tspan>
<tspan x="10" y="778">  │ │ │ │ ├── process-nextick-args@1.0.7 </tspan>
<tspan x="10" y="794">  │ │ │ │ ├── string_decoder@1.0.0 </tspan>
<tspan x="10" y="810">  │ │ │ │ └── util-deprecate@1.0.2 </tspan>
<tspan x="10" y="826">  │ │ │ └── typedarray@0.0.6 </tspan>
<tspan x="10" y="842">  │ │ ├─┬ debug@2.6.4 </tspan>
<tspan x="10" y="858">  │ │ │ └── ms@0.7.3 </tspan>
<tspan x="10" y="874">  │ │ ├─┬ doctrine@2.0.0 </tspan>
<tspan x="10" y="890">  │ │ │ └── isarray@1.0.0 </tspan>
<tspan x="10" y="906">  │ │ ├─┬ escope@3.6.0 </tspan>
<tspan x="10" y="922">  │ │ │ ├─┬ es6-map@0.1.5 </tspan>
<tspan x="10" y="938">  │ │ │ │ ├── d@1.0.0 </tspan>
<tspan x="10" y="954">  │ │ │ │ ├── es5-ext@0.10.15 </tspan>
<tspan x="10" y="970">  │ │ │ │ ├── es6-iterator@2.0.1 </tspan>
<tspan x="10" y="986">  │ │ │ │ ├── es6-set@0.1.5 </tspan>
<tspan x="10" y="1002">  │ │ │ │ ├── es6-symbol@3.1.1 </tspan>
<tspan x="10" y="1018">  │ │ │ │ └── event-emitter@0.3.5 </tspan>
<tspan x="10" y="1034">  │ │ │ ├── es6-weak-map@2.0.2 </tspan>
<tspan x="10" y="1050">  │ │ │ └─┬ esrecurse@4.1.0 </tspan>
<tspan x="10" y="1066">  │ │ │   └── estraverse@4.1.1 </tspan>
<tspan x="10" y="1082">  │ │ ├─┬ espree@3.4.2 </tspan>
<tspan x="10" y="1098">  │ │ │ ├── acorn@5.0.3 </tspan>
<tspan x="10" y="1114">  │ │ │ └─┬ acorn-jsx@3.0.1 </tspan>
<tspan x="10" y="1130">  │ │ │   └── acorn@3.3.0 </tspan>
<tspan x="10" y="1146">  │ │ ├── esquery@1.0.0 </tspan>
<tspan x="10" y="1162">  │ │ ├── estraverse@4.2.0 </tspan>
<tspan x="10" y="1178">  │ │ ├── esutils@2.0.2 </tspan>
<tspan x="10" y="1194">  │ │ ├─┬ file-entry-cache@2.0.0 </tspan>
<tspan x="10" y="1210">  │ │ │ └─┬ flat-cache@1.2.2 </tspan>
<tspan x="10" y="1226">  │ │ │   ├── circular-json@0.3.1 </tspan>
<tspan x="10" y="1242">  │ │ │   ├─┬ del@2.2.2 </tspan>
<tspan x="10" y="1258">  │ │ │   │ ├─┬ globby@5.0.0 </tspan>
<tspan x="10" y="1274">  │ │ │   │ │ ├─┬ array-union@1.0.2 </tspan>
<tspan x="10" y="1290">  │ │ │   │ │ │ └── array-uniq@1.0.3 </tspan>
<tspan x="10" y="1306">  │ │ │   │ │ └── arrify@1.0.1 </tspan>
<tspan x="10" y="1322">  │ │ │   │ ├── is-path-cwd@1.0.0 </tspan>
<tspan x="10" y="1338">  │ │ │   │ ├─┬ is-path-in-cwd@1.0.0 </tspan>
<tspan x="10" y="1354">  │ │ │   │ │ └── is-path-inside@1.0.0 </tspan>
<tspan x="10" y="1370">  │ │ │   │ ├── pify@2.3.0 </tspan>
<tspan x="10" y="1386">  │ │ │   │ └─┬ pinkie-promise@2.0.1 </tspan>
<tspan x="10" y="1402">  │ │ │   │   └── pinkie@2.0.4 </tspan>
<tspan x="10" y="1418">  │ │ │   ├── graceful-fs@4.1.11 </tspan>
<tspan x="10" y="1434">  │ │ │   └── write@0.2.1 </tspan>
<tspan x="10" y="1450">  │ │ ├─┬ glob@7.1.1 </tspan>
<tspan x="10" y="1466">  │ │ │ ├── fs.realpath@1.0.0 </tspan>
<tspan x="10" y="1482">  │ │ │ ├─┬ inflight@1.0.6 </tspan>
<tspan x="10" y="1498">  │ │ │ │ └── wrappy@1.0.2 </tspan>
<tspan x="10" y="1514">  │ │ │ ├── once@1.4.0 </tspan>
<tspan x="10" y="1530">  │ │ │ └── path-is-absolute@1.0.1 </tspan>
<tspan x="10" y="1546">  │ │ ├── globals@9.17.0 </tspan>
<tspan x="10" y="1562">  │ │ ├── ignore@3.2.7 </tspan>
<tspan x="10" y="1578">  │ │ ├── imurmurhash@0.1.4 </tspan>
<tspan x="10" y="1594">  │ │ ├─┬ inquirer@0.12.0 </tspan>
<tspan x="10" y="1610">  │ │ │ ├── ansi-escapes@1.4.0 </tspan>
<tspan x="10" y="1626">  │ │ │ ├── ansi-regex@2.1.1 </tspan>
<tspan x="10" y="1642">  │ │ │ ├─┬ cli-cursor@1.0.2 </tspan>
<tspan x="10" y="1658">  │ │ │ │ └─┬ restore-cursor@1.0.1 </tspan>
<tspan x="10" y="1674">  │ │ │ │   ├── exit-hook@1.1.1 </tspan>
<tspan x="10" y="1690">  │ │ │ │   └── onetime@1.1.0 </tspan>
<tspan x="10" y="1706">  │ │ │ ├── cli-width@2.1.0 </tspan>
<tspan x="10" y="1722">  │ │ │ ├── figures@1.7.0 </tspan>
<tspan x="10" y="1738">  │ │ │ ├─┬ readline2@1.0.1 </tspan>
<tspan x="10" y="1754">  │ │ │ │ ├── code-point-at@1.1.0 </tspan>
<tspan x="10" y="1770">  │ │ │ │ ├─┬ is-fullwidth-code-point@1.0.0 </tspan>
<tspan x="10" y="1786">  │ │ │ │ │ └── number-is-nan@1.0.1 </tspan>
<tspan x="10" y="1802">  │ │ │ │ └── mute-stream@0.0.5 </tspan>
<tspan x="10" y="1818">  │ │ │ ├── run-async@0.1.0 </tspan>
<tspan x="10" y="1834">  │ │ │ ├── rx-lite@3.1.2 </tspan>
<tspan x="10" y="1850">  │ │ │ ├── string-width@1.0.2 </tspan>
<tspan x="10" y="1866">  │ │ │ └── through@2.3.8 </tspan>
<tspan x="10" y="1882">  │ │ ├─┬ is-my-json-valid@2.16.0 </tspan>
<tspan x="10" y="1898">  │ │ │ ├── generate-function@2.0.0 </tspan>
<tspan x="10" y="1914">  │ │ │ ├─┬ generate-object-property@1.2.0 </tspan>
<tspan x="10" y="1930">  │ │ │ │ └── is-property@1.0.2 </tspan>
<tspan x="10" y="1946">  │ │ │ ├── jsonpointer@4.0.1 </tspan>
<tspan x="10" y="1962">  │ │ │ └── xtend@4.0.1 </tspan>
<tspan x="10" y="1978">  │ │ ├─┬ is-resolvable@1.0.0 </tspan>
<tspan x="10" y="1994">  │ │ │ └── tryit@1.0.3 </tspan>
<tspan x="10" y="2010">  │ │ ├─┬ js-yaml@3.8.3 </tspan>
<tspan x="10" y="2026">  │ │ │ ├─┬ argparse@1.0.9 </tspan>
<tspan x="10" y="2042">  │ │ │ │ └── sprintf-js@1.0.3 </tspan>
<tspan x="10" y="2058">  │ │ │ └── esprima@3.1.3 </tspan>
<tspan x="10" y="2074">  │ │ ├─┬ levn@0.3.0 </tspan>
<tspan x="10" y="2090">  │ │ │ ├── prelude-ls@1.1.2 </tspan>
<tspan x="10" y="2106">  │ │ │ └── type-check@0.3.2 </tspan>
<tspan x="10" y="2122">  │ │ ├── lodash@4.17.4 </tspan>
<tspan x="10" y="2138">  │ │ ├── natural-compare@1.4.0 </tspan>
<tspan x="10" y="2154">  │ │ ├─┬ optionator@0.8.2 </tspan>
<tspan x="10" y="2170">  │ │ │ ├── deep-is@0.1.3 </tspan>
<tspan x="10" y="2186">  │ │ │ ├── fast-levenshtein@2.0.6 </tspan>
<tspan x="10" y="2202">  │ │ │ └── wordwrap@1.0.0 </tspan>
<tspan x="10" y="2218">  │ │ ├── path-is-inside@1.0.2 </tspan>
<tspan x="10" y="2234">  │ │ ├── pluralize@1.2.1 </tspan>
<tspan x="10" y="2250">  │ │ ├── progress@1.1.8 </tspan>
<tspan x="10" y="2266">  │ │ ├─┬ require-uncached@1.0.3 </tspan>
<tspan x="10" y="2282">  │ │ │ ├─┬ caller-path@0.1.0 </tspan>
<tspan x="10" y="2298">  │ │ │ │ └── callsites@0.2.0 </tspan>
<tspan x="10" y="2314">  │ │ │ └── resolve-from@1.0.1 </tspan>
<tspan x="10" y="2330">  │ │ ├─┬ shelljs@0.7.7 </tspan>
<tspan x="10" y="2346">  │ │ │ ├── interpret@1.0.3 </tspan>
<tspan x="10" y="2362">  │ │ │ └── rechoir@0.6.2 </tspan>
<tspan x="10" y="2378">  │ │ ├── strip-bom@3.0.0 </tspan>
<tspan x="10" y="2394">  │ │ ├── strip-json-comments@2.0.1 </tspan>
<tspan x="10" y="2410">  │ │ ├─┬ table@3.8.3 </tspan>
<tspan x="10" y="2426">  │ │ │ ├─┬ ajv@4.11.7 </tspan>
<tspan x="10" y="2442">  │ │ │ │ └── co@4.6.0 </tspan>
<tspan x="10" y="2458">  │ │ │ ├── ajv-keywords@1.5.1 </tspan>
<tspan x="10" y="2474">  │ │ │ ├── slice-ansi@0.0.4 </tspan>
<tspan x="10" y="2490">  │ │ │ └─┬ string-width@2.0.0 </tspan>
<tspan x="10" y="2506">  │ │ │   └── is-fullwidth-code-point@2.0.0 </tspan>
<tspan x="10" y="2522">  │ │ ├── text-table@0.2.0 </tspan>
<tspan x="10" y="2538">  │ │ └─┬ user-home@2.0.0 </tspan>
<tspan x="10" y="2554">  │ │   └── os-homedir@1.0.2 </tspan>
<tspan x="10" y="2570">  │ ├─┬ json-stable-stringify@1.0.1 </tspan>
<tspan x="10" y="2586">  │ │ └── jsonify@0.0.0 </tspan>
<tspan x="10" y="2602">  │ └─┬ md5-hex@2.0.0 </tspan>
<tspan x="10" y="2618">  │   └── md5-o-matic@0.1.1 </tspan>
<tspan x="10" y="2634">  ├── js-string-escape@1.0.1 </tspan>
<tspan x="10" y="2650">  ├── rsvp@3.5.0 </tspan>
<tspan x="10" y="2666">  └─┬ walk-sync@0.3.1 </tspan>
<tspan x="10" y="2682">    ├── ensure-posix-path@1.0.2 </tspan>
<tspan x="10" y="2698">    └─┬ matcher-collection@1.0.4 </tspan>
<tspan x="10" y="2714">      └─┬ minimatch@3.0.3 </tspan>
<tspan x="10" y="2730">        └─┬ brace-expansion@1.1.7 </tspan>
<tspan x="10" y="2746">          ├── balanced-match@0.4.2 </tspan>
<tspan x="10" y="2762">          └── concat-map@0.0.1</tspan>
</text>
</svg>
